<?xml version="1.0" encoding="UTF-8"?>
<svg width="320" height="132" viewBox="0 0 320 132" fill="none" xmlns="http://www.w3.org/2000/svg">
  <!-- Lotus Flower based on the exact image provided (320x132) -->
  
  <!-- Left petal -->
  <path d="M65 40 C 30 45, 20 80, 40 100 C 60 115, 80 110, 100 90" 
        fill="#FFFFFF" stroke="#3B83BD" stroke-width="4"/>
  
  <!-- Right petal -->
  <path d="M255 40 C 290 45, 300 80, 280 100 C 260 115, 240 110, 220 90" 
        fill="#FFFFFF" stroke="#3B83BD" stroke-width="4"/>
  
  <!-- Bottom left petal -->
  <path d="M100 90 C 90 120, 100 130, 130 120 C 150 110, 155 100, 160 85" 
        fill="#FFFFFF" stroke="#3B83BD" stroke-width="4"/>
  
  <!-- Bottom right petal -->
  <path d="M220 90 C 230 120, 220 130, 190 120 C 170 110, 165 100, 160 85" 
        fill="#FFFFFF" stroke="#3B83BD" stroke-width="4"/>
  
  <!-- Top petal -->
  <path d="M100 90 C 110 70, 130 50, 160 45 C 190 50, 210 70, 220 90" 
        fill="#FFFFFF" stroke="#3B83BD" stroke-width="4"/>
  
  <!-- Center shape -->
  <ellipse cx="160" cy="80" rx="25" ry="35" fill="#FFFFFF" stroke="#3B83BD" stroke-width="2"/>
  
  <!-- D in center -->
  <g transform="translate(160, 80)">
    <ellipse cx="0" cy="0" rx="15" ry="25" fill="#280075"/>
    <path d="M-7 -15 L -7 15 C -7 15, -7 16, -5 16 L 2 16 C 8 16, 10 8, 10 0 C 10 -8, 8 -16, 2 -16 L -5 -16 C -7 -16, -7 -15, -7 -15 Z" fill="#280075"/>
    <path d="M-5 -13 L -5 13 L 1 13 C 5 13, 7 7, 7 0 C 7 -7, 5 -13, 1 -13 L -5 -13 Z" fill="#FFFFFF"/>
  </g>
  
  <!-- Gold outline accents -->
  <path d="M65 40 C 30 45, 20 80, 40 100 C 60 115, 80 110, 100 90" 
        fill="none" stroke="#F9E852" stroke-width="1" stroke-opacity="0.7"/>
  <path d="M255 40 C 290 45, 300 80, 280 100 C 260 115, 240 110, 220 90" 
        fill="none" stroke="#F9E852" stroke-width="1" stroke-opacity="0.7"/>
  <path d="M100 90 C 90 120, 100 130, 130 120 C 150 110, 155 100, 160 85" 
        fill="none" stroke="#F9E852" stroke-width="1" stroke-opacity="0.7"/>
  <path d="M220 90 C 230 120, 220 130, 190 120 C 170 110, 165 100, 160 85" 
        fill="none" stroke="#F9E852" stroke-width="1" stroke-opacity="0.7"/>
  <path d="M100 90 C 110 70, 130 50, 160 45 C 190 50, 210 70, 220 90" 
        fill="none" stroke="#F9E852" stroke-width="1" stroke-opacity="0.7"/>
</svg>